<?xml version="1.0" encoding="UTF-8" standalone="no"?>
<!-- Created with Inkscape (http://www.inkscape.org/) -->

<svg
   width="56.032131mm"
   height="49.207592mm"
   viewBox="0 0 56.032131 49.207592"
   version="1.1"
   id="svg1013"
   xmlns:xlink="http://www.w3.org/1999/xlink"
   xmlns="http://www.w3.org/2000/svg"
   xmlns:svg="http://www.w3.org/2000/svg"
   xmlns:rdf="http://www.w3.org/1999/02/22-rdf-syntax-ns#"
   xmlns:cc="http://creativecommons.org/ns#"
   xmlns:dc="http://purl.org/dc/elements/1.1/">
  <defs
     id="defs1007">
    <linearGradient
       xlink:href="#linearGradient70"
       id="linearGradient951"
       gradientUnits="userSpaceOnUse"
       gradientTransform="rotate(11.508681,260.86314,606.65154)"
       x1="-68.820274"
       y1="271.42041"
       x2="-17.300627"
       y2="264.79758" />
    <linearGradient
       id="linearGradient70">
      <stop
         style="stop-color:#22600e;stop-opacity:1"
         offset="0"
         id="stop66" />
      <stop
         style="stop-color:#7bc005;stop-opacity:1"
         offset="1"
         id="stop68" />
    </linearGradient>
    <radialGradient
       xlink:href="#linearGradient843"
       id="radialGradient845"
       cx="-107.63512"
       cy="146.70032"
       fx="-107.63512"
       fy="146.70032"
       r="25.234015"
       gradientTransform="matrix(-0.19226047,-0.88703337,1.4452858,-0.31322384,-213.91641,121.81607)"
       gradientUnits="userSpaceOnUse" />
    <linearGradient
       id="linearGradient843">
      <stop
         style="stop-color:#353535;stop-opacity:1"
         offset="0"
         id="stop839" />
      <stop
         style="stop-color:#000000;stop-opacity:1"
         offset="1"
         id="stop841" />
    </linearGradient>
  </defs>
  <metadata
     id="metadata1010">
    <rdf:RDF>
      <cc:Work
         rdf:about="">
        <dc:format>image/svg+xml</dc:format>
        <dc:type
           rdf:resource="http://purl.org/dc/dcmitype/StillImage" />
        <dc:title />
      </cc:Work>
    </rdf:RDF>
  </metadata>
  <g
     id="layer1"
     transform="translate(168.62321,-166.56287)">
    <g
       transform="translate(-171.17404,11.222213)"
       id="g981">
      <ellipse
         ry="6.0407481"
         rx="5.8517599"
         cy="164.57198"
         cx="83.383698"
         id="ellipse967"
         style="opacity:1;fill:#1a1a1a;fill-opacity:1;stroke:#000000;stroke-width:0.557;stroke-linecap:round;stroke-miterlimit:4;stroke-dasharray:none;stroke-dashoffset:0;stroke-opacity:1"
         transform="rotate(11.508681)" />
      <path
         id="path969"
         d="m 42.559024,204.54822 c -8.021903,-1.90515 -26.853499,-2.53462 -30.517718,-14.76508 0.602982,0.005 -4.2787881,-1.52354 -2.7634806,-1.98977 1.3345856,-0.39903 1.1856716,-1.17961 -0.3685918,-1.93211 -0.7757241,-0.37557 -1.8091331,-0.94033 -2.2964756,-1.25502 -1.0935248,-0.70611 -0.9693248,-1.8744 0.1991762,-1.87349 2.6506952,0.002 2.8333478,-0.0388 2.9604318,-0.66301 0.072604,-0.35658 -0.340569,-1.13483 -0.9181687,-1.72944 -1.173107,-1.20766 -1.4614384,-2.06937 -0.77676,-2.3214 0.2506383,-0.0923 1.3936509,-0.0848 2.5400227,0.0166 1.14637,0.10139 2.47675,-0.0199 2.956389,-0.26945 0.775403,-0.40348 0.845166,-0.57049 0.629266,-1.50661 -0.153313,-0.6648 -0.09531,-1.15041 0.157393,-1.31763 0.220102,-0.14563 2.116404,-0.25508 4.213989,-0.24321 5.300892,0.03 8.422016,-0.22092 15.371583,-1.23578 10.648818,-1.55505 14.157029,-1.2023 18.144047,1.8244 3.635362,2.75975 7.337636,8.91046 6.322492,10.50378 -0.348243,0.54658 -1.183696,0.7109 -7.59381,1.4935 -5.009458,0.6116 -11.685892,0.72332 -14.081039,0.23565 -1.411685,-0.28744 -2.190976,0.0801 -1.710289,0.80656 0.523548,0.79126 11.461263,0.35884 18.213366,-0.72006 2.218423,-0.35447 4.208579,-0.60885 4.422575,-0.56528 0.639596,0.13023 -0.348387,2.00657 -1.787238,3.39423 -1.402524,1.35264 -4.595848,3.07143 -8.420269,4.53216 -7.456888,1.00569 -4.896891,9.58049 -4.896891,9.58049 z m -3.541395,-21.85021 c 0.851715,-0.52839 1.703316,-0.929 1.892532,-0.89067 0.576227,0.11672 1.118387,-0.84089 -1.685998,-2.52009 -1.618031,-1.61962 -3.804892,-2.25118 -5.621472,-1.62348 -0.830503,0.76478 -1.141251,1.05478 -0.994359,2.56248 0.509425,1.87918 1.567912,2.40377 3.422056,2.79048 1.39507,0.29119 1.666907,0.5004 2.987241,-0.31872 z m 12.937681,-0.10002 c 0.0392,-0.19253 -0.08625,-0.38213 -0.278785,-0.42133 -0.192535,-0.0392 -0.382135,0.0863 -0.421336,0.27878 -0.0392,0.19253 0.08625,0.38213 0.278785,0.42134 0.192532,0.0392 0.382135,-0.0863 0.421336,-0.27879 z"
         style="fill:url(#linearGradient951);fill-opacity:1;stroke-width:0.357243" />
      <path
         style="fill:#1a1a1a;stroke:#000000;stroke-width:0.330925px;stroke-linecap:butt;stroke-linejoin:miter;stroke-opacity:1"
         d="m 43.447825,166.17023 c -0.259344,-2.29134 -5.090509,-10.98921 -9.119472,-10.34767 -2.701233,-0.8562 -21.939122,-0.17149 -22.907509,4.52295 -1.6595829,3.65091 1.401442,11.25624 1.420446,14.14697 6.92033,-6.99332 21.294464,-8.53738 30.606535,-8.32225 z"
         id="path971" />
      <path
         style="fill:#4d4d4d;stroke:none;stroke-width:0.265;stroke-linecap:butt;stroke-linejoin:miter;stroke-miterlimit:4;stroke-dasharray:none;stroke-opacity:1"
         d="m 11.406611,168.19432 c 5.144201,-2.90966 21.271359,-4.97888 30.390743,-5.45179 l 1.650471,3.4277 -31.252826,5.1849 z"
         id="path973" />
      <path
         style="fill:url(#radialGradient845);fill-opacity:1;stroke:#000000;stroke-width:0.232;stroke-linecap:butt;stroke-linejoin:miter;stroke-miterlimit:4;stroke-dasharray:none;stroke-opacity:1"
         d="m 4.6095048,184.94556 c 3.5452424,-1.03923 4.9731673,-1.30059 8.6093322,-2.42936 20.676975,-6.41874 43.217312,-13.83348 43.169202,-13.87752 -1.040862,-5.69745 -44.306031,-5.04993 -51.7247903,6.97149 0,0 -4.45557849,6.05372 -0.053744,9.33539 z"
         id="path975" />
      <path
         style="opacity:1;fill:#1a1a1a;fill-opacity:1;stroke:#000000;stroke-width:0.9;stroke-linecap:round;stroke-miterlimit:4;stroke-dasharray:none;stroke-dashoffset:0;stroke-opacity:1"
         d="m 50.40854,173.19789 c -2.192432,-1.89366 -6.110748,-0.17002 -7.670493,1.55634 -0.851777,-1.1612 -1.540327,-1.30151 -2.93136,-1.58653 -3.166962,-0.64486 -6.273923,1.4827 -6.93946,4.75199 -0.665456,3.26909 1.362223,6.4418 4.529015,7.08655 3.166776,0.64483 6.273587,-1.48245 6.939357,-4.75147 0.272714,-1.33985 0.09703,-2.72969 -0.498329,-3.94229 1.475457,-2.48396 4.194943,-2.76153 6.57127,-3.11459 z"
         id="path977" />
      <path
         style="opacity:0.201;fill:#999999;stroke:none;stroke-width:0.264583px;stroke-linecap:butt;stroke-linejoin:miter;stroke-opacity:1"
         d="m 39.176383,173.6592 c -1.922075,3.06827 -2.448244,6.72386 -2.71425,10.48891 0.970843,0.59948 2.222252,0.45253 2.222252,0.45253 -0.789604,-2.7659 2.081685,-10.76359 2.594204,-10.60979 -0.579833,-0.3635 -1.298668,-0.43616 -2.102198,-0.33169 z"
         id="path979" />
    </g>
  </g>
</svg>
