<?xml version="1.0" encoding="UTF-8" standalone="no"?>
<!DOCTYPE svg PUBLIC "-//W3C//DTD SVG 1.1//EN" "http://www.w3.org/Graphics/SVG/1.1/DTD/svg11.dtd">
<!-- Created with Vectornator (http://vectornator.io/) -->
<svg height="100%" stroke-miterlimit="10" style="fill-rule:nonzero;clip-rule:evenodd;stroke-linecap:round;stroke-linejoin:round;" version="1.1" viewBox="0 0 3700 777" width="100%" xml:space="preserve" xmlns="http://www.w3.org/2000/svg" xmlns:xlink="http://www.w3.org/1999/xlink">
<defs/>
<g id="黒文字">
<path d="M295.156 21.5938C260.825 21.5938 219.103 45.7058 201.938 75.4375L52.2812 334.656C35.1157 364.388 35.1156 412.612 52.2812 442.344L201.938 701.562C219.103 731.294 260.825 755.375 295.156 755.375L594.5 755.375C628.831 755.375 670.553 731.294 687.719 701.562L837.406 442.344C854.572 412.612 854.572 364.388 837.406 334.656L687.719 75.4375C670.553 45.7058 628.831 21.5938 594.5 21.5938L295.156 21.5938ZM295.156 61.5938C295.741 61.5938 593.915 61.5937 594.5 61.5938C614.531 61.5938 643.068 78.0732 653.094 95.4375L802.75 354.656C812.769 372.01 812.771 404.988 802.75 422.344L653.094 681.531C643.068 698.897 614.531 715.375 594.5 715.375L295.156 715.375C275.126 715.375 246.619 698.927 236.594 681.562L86.9062 422.344C76.8868 404.99 76.886 372.012 86.9062 354.656L236.594 95.4375C246.62 78.0719 275.126 61.5938 295.156 61.5938ZM311.312 115.781C298.095 115.781 282.015 125.053 275.406 136.5L141.906 367.75C135.297 379.197 135.297 397.772 141.906 409.219L275.406 640.469C282.015 651.916 298.095 661.219 311.312 661.219L316.469 661.219C323.771 661.219 329.688 655.302 329.688 648L329.688 472.969C329.688 467.492 334.149 463.031 339.625 463.031L705.938 463.031C711.846 463.031 719.019 458.915 722.031 453.812L747.781 409.219C754.39 397.772 754.39 379.197 747.781 367.75L743.812 360.938C740.917 355.922 733.885 351.844 728.094 351.844L339.625 351.844C334.148 351.844 329.687 347.414 329.688 341.938L329.688 235.656C329.688 230.18 334.149 225.719 339.625 225.719L648 225.719C657.803 225.719 661.817 218.861 656.938 210.375L614.25 136.5C607.641 125.053 591.593 115.781 578.375 115.781L311.312 115.781ZM1130.75 215.375L1130.75 561.625L1192.12 561.625L1192.12 419.062L1357.78 419.062L1357.78 367.938L1192.12 367.938L1192.12 276.75L1377.88 276.75L1377.88 215.375L1130.75 215.375ZM1419.78 215.375L1419.78 561.625L1481.16 561.625L1481.16 215.375L1419.78 215.375ZM2783.91 224.812C2753.29 224.812 2725.44 232.073 2700.34 246.594C2675.25 261.114 2655.43 281.211 2640.91 306.938C2626.39 332.664 2619.12 361.646 2619.12 393.844C2619.13 426.041 2626.39 454.932 2640.91 480.5C2655.43 506.068 2675.25 526.012 2700.34 540.375C2725.44 554.738 2753.29 561.938 2783.91 561.938C2819.89 561.937 2851.29 553.329 2878.12 536.125C2904.96 518.922 2924.53 494.535 2936.84 462.969L2885.22 462.969C2876.06 482.855 2862.89 498.082 2845.69 508.656C2828.48 519.231 2807.9 524.531 2783.91 524.531C2760.86 524.531 2740.18 519.139 2721.88 508.406C2703.57 497.674 2689.2 482.448 2678.78 462.719C2668.36 442.99 2663.16 420.044 2663.16 393.844C2663.16 367.328 2668.36 344.198 2678.78 324.469C2689.2 304.74 2703.57 289.514 2721.88 278.781C2740.18 268.049 2760.86 262.688 2783.91 262.688C2807.9 262.687 2828.48 268.049 2845.69 278.781C2862.89 289.514 2876.06 304.832 2885.22 324.719L2936.84 324.719C2924.53 292.837 2904.96 268.205 2878.12 250.844C2851.29 233.482 2819.89 224.812 2783.91 224.812ZM3390.88 294.875C3370.67 294.875 3353.55 298.98 3339.5 307.188C3325.45 315.395 3314.64 326.914 3307.06 341.75L3307.06 299.625L3263.97 299.625L3263.97 559.094L3307.06 559.094L3307.06 417.969C3307.06 365.569 3331.2 339.375 3379.5 339.375L3390.88 339.375L3390.88 294.875ZM3095.91 295.344C3071.28 295.344 3049.04 300.797 3029.16 311.688C3009.27 322.578 2993.55 338.202 2982.03 358.562C2970.51 378.923 2964.75 402.36 2964.75 428.875C2964.75 455.706 2970.36 479.296 2981.56 499.656C2992.77 520.016 3008.24 535.733 3027.97 546.781C3047.7 557.829 3069.73 563.344 3094.03 563.344C3118.65 563.344 3141.05 557.829 3161.25 546.781C3181.45 535.733 3197.47 520.016 3209.31 499.656C3221.15 479.296 3227.06 455.706 3227.06 428.875C3227.06 402.044 3221.3 378.515 3209.78 358.312C3198.26 338.11 3182.57 322.578 3162.69 311.688C3142.8 300.797 3120.53 295.344 3095.91 295.344ZM3532.88 295.344C3507.62 295.344 3485.29 300.797 3465.88 311.688C3446.46 322.578 3431.42 338.11 3420.69 358.312C3409.96 378.515 3404.56 402.044 3404.56 428.875C3404.56 455.706 3410.11 479.296 3421.16 499.656C3432.2 520.016 3447.43 535.733 3466.84 546.781C3486.26 557.829 3508.25 563.344 3532.88 563.344C3563.81 563.344 3589.7 555.531 3610.53 539.906C3631.37 524.281 3645.27 504 3652.22 479.062L3605.81 479.062C3600.76 493.583 3592 505.194 3579.53 513.875C3567.06 522.556 3551.5 526.875 3532.88 526.875C3510.15 526.875 3490.82 519.706 3474.88 505.344C3458.93 490.981 3450.17 471.006 3448.59 445.438L3656 445.438C3656.95 436.283 3657.41 427.613 3657.41 419.406C3657.41 395.732 3652.29 374.501 3642.03 355.719C3631.77 336.937 3617.16 322.17 3598.22 311.438C3579.28 300.705 3557.5 295.344 3532.88 295.344ZM2193.06 300.5L2174.56 301.094C2143.99 302.011 2114.08 323.167 2092.25 347L2092.25 306.969L2030.91 306.969L2030.91 561.625L2092.25 561.625L2092.25 447.812L2092.28 447.812C2092.27 439.837 2091.15 399.213 2118.75 379.688C2151.03 356.853 2193.47 361.844 2193.47 361.844L2193.06 300.5ZM2378.72 301.781C2342.52 302.719 2314.19 319.387 2294.25 342.562L2294.25 306.969L2232.91 306.969L2232.91 622.469L2294.25 622.469L2294.25 521.625C2314.37 546.326 2342.88 564.38 2378.72 563.625C2443.46 562.261 2497.5 505.704 2497.5 432.688C2497.5 359.671 2443.46 300.104 2378.72 301.781ZM1867.88 306.844C1828.56 307.933 1794.4 329.886 1755.75 386.875C1713.4 324.892 1673.69 302.634 1630.69 307.844C1553.52 317.194 1506.53 396.276 1527.78 471.031C1535.88 499.522 1551.94 523.514 1576.69 540.938C1593.42 552.718 1615.78 560.97 1632.09 561.688C1675.68 563.607 1714.91 540.813 1755.66 482.438C1797.76 542.707 1838.13 565.712 1880.59 561.5C1915.75 558.013 1942.17 539.847 1963.28 513.125C1980.92 490.799 1989.67 459.052 1989.06 430.344C1988.86 420.775 1987.53 411.534 1985.22 403.094C1979.1 380.714 1973.14 367.591 1958.47 349.719C1937.6 324.287 1907.78 308.179 1875.81 306.875C1873.14 306.766 1870.5 306.771 1867.88 306.844ZM3531 331.812C3546.15 331.813 3559.97 334.876 3572.44 341.031C3584.91 347.187 3594.77 356.194 3602.03 368.031C3609.29 379.869 3612.91 393.992 3612.91 410.406L3449.09 410.406C3451.3 385.785 3460.07 366.545 3475.38 352.656C3490.68 338.767 3509.22 331.812 3531 331.812ZM3095.44 332.75C3110.91 332.75 3125.27 336.304 3138.53 343.406C3151.79 350.509 3162.51 361.323 3170.72 375.844C3178.93 390.364 3183.03 408.041 3183.03 428.875C3183.03 449.709 3178.87 467.386 3170.5 481.906C3162.13 496.427 3151.14 507.302 3137.56 514.562C3123.99 521.823 3109.5 525.469 3094.03 525.469C3078.56 525.469 3064.35 521.915 3051.41 514.812C3038.46 507.71 3028.11 496.895 3020.38 482.375C3012.64 467.855 3008.78 450.024 3008.78 428.875C3008.78 408.041 3012.73 390.364 3020.62 375.844C3028.52 361.323 3039.03 350.509 3052.12 343.406C3065.22 336.304 3079.65 332.75 3095.44 332.75ZM2369.03 355.688C2409.88 355.688 2443.91 389.563 2443.91 432.375C2443.91 475.188 2409.88 509.188 2369.03 509.188C2328.18 509.188 2294.25 475.188 2294.25 432.375C2294.25 389.562 2328.18 355.687 2369.03 355.688ZM1873.78 357.906C1890.52 358.589 1906.99 367.497 1918.97 382.094C1928.44 393.637 1931.53 400.608 1935.91 416.625C1941.02 435.325 1936.12 464.917 1923.12 481.375C1909.82 498.221 1894.56 508.672 1875.5 510.562C1864.58 511.646 1854.31 509.182 1841.41 500.344C1824.57 488.816 1805.96 467.139 1785.81 434.812C1806.54 400.919 1824.87 378.949 1840.97 367.719C1852.67 359.554 1861.4 357.401 1873.78 357.906ZM1644.91 358.344C1652.8 358.743 1660.46 361.448 1669.69 367.719C1686.32 379.027 1705.04 401.198 1725.62 434.938C1706.11 466.394 1687.95 487.523 1671.28 499.062C1658.08 508.204 1647.03 511.122 1634.31 510.562C1628.26 510.296 1615.17 505.548 1606.09 499.156C1591.36 488.784 1582.02 474.764 1577 457.094C1564.02 411.442 1592.17 364.073 1636.88 358.656C1639.63 358.323 1642.28 358.211 1644.91 358.344Z" fill="#5309e8" fill-rule="nonzero" opacity="1" stroke="none"/>
</g>
</svg>
