<svg width="50" height="25" viewBox="0 0 50 25" fill="none" xmlns="http://www.w3.org/2000/svg">
<g clip-path="url(#clip0_601_12)">
<rect x="0.5" y="0.5" width="49" height="24" rx="4.5" fill="white" stroke="black" stroke-linejoin="round"/>
<path d="M12.0443 11.336C11.6683 11.336 11.3563 11.44 11.1083 11.648C10.8603 11.856 10.7363 12.108 10.7363 12.404C10.7363 12.708 10.8603 12.968 11.1083 13.184C11.3563 13.4 11.6683 13.508 12.0443 13.508C12.4283 13.508 12.7403 13.4 12.9803 13.184C13.2283 12.968 13.3523 12.708 13.3523 12.404C13.3523 12.108 13.2283 11.856 12.9803 11.648C12.7403 11.44 12.4283 11.336 12.0443 11.336ZM12.0443 10.268C12.4043 10.268 12.7443 10.324 13.0643 10.436C13.3843 10.548 13.6603 10.7 13.8923 10.892C14.1323 11.084 14.3203 11.312 14.4563 11.576C14.5923 11.832 14.6603 12.108 14.6603 12.404C14.6603 12.708 14.5923 12.992 14.4563 13.256C14.3203 13.512 14.1323 13.736 13.8923 13.928C13.6603 14.12 13.3843 14.272 13.0643 14.384C12.7443 14.496 12.4003 14.552 12.0323 14.552C11.6723 14.552 11.3363 14.496 11.0243 14.384C10.7123 14.272 10.4363 14.12 10.1963 13.928C9.96427 13.736 9.78027 13.512 9.64427 13.256C9.50827 12.992 9.44027 12.708 9.44027 12.404C9.44027 12.108 9.50827 11.832 9.64427 11.576C9.78027 11.312 9.96427 11.084 10.1963 10.892C10.4363 10.7 10.7123 10.548 11.0243 10.436C11.3443 10.324 11.6843 10.268 12.0443 10.268ZM15.3083 9.656C15.3083 9.712 15.2883 9.76 15.2483 9.8C15.2163 9.832 15.1763 9.848 15.1283 9.848H8.76827C8.72027 9.848 8.67627 9.828 8.63627 9.788C8.59627 9.748 8.57627 9.7 8.57627 9.644V8.936C8.57627 8.896 8.59627 8.856 8.63627 8.816C8.68427 8.776 8.73227 8.756 8.78027 8.756H15.1283C15.1763 8.756 15.2163 8.776 15.2483 8.816C15.2883 8.848 15.3083 8.888 15.3083 8.936V9.656ZM13.7603 8.048C13.7603 8.096 13.7403 8.14 13.7003 8.18C13.6683 8.22 13.6203 8.24 13.5563 8.24H10.4243C10.3923 8.24 10.3523 8.224 10.3043 8.192C10.2643 8.16 10.2443 8.116 10.2443 8.06V7.352C10.2443 7.288 10.2643 7.24 10.3043 7.208C10.3523 7.176 10.3923 7.16 10.4243 7.16H13.5563C13.6123 7.16 13.6603 7.18 13.7003 7.22C13.7403 7.26 13.7603 7.308 13.7603 7.364V8.048ZM17.9363 17.96C17.9363 18.008 17.9163 18.044 17.8763 18.068C17.8363 18.092 17.7963 18.104 17.7563 18.104H11.4203C11.0603 18.104 10.8163 18.04 10.6883 17.912C10.5603 17.784 10.4963 17.564 10.4963 17.252V15.392C10.4963 15.352 10.5163 15.312 10.5563 15.272C10.5963 15.232 10.6363 15.212 10.6763 15.212H11.6963C11.7523 15.212 11.7963 15.232 11.8283 15.272C11.8683 15.312 11.8883 15.352 11.8883 15.392V16.76C11.8883 16.84 11.9043 16.892 11.9363 16.916C11.9683 16.94 12.0243 16.952 12.1043 16.952H17.7563C17.7963 16.952 17.8363 16.968 17.8763 17C17.9163 17.032 17.9363 17.068 17.9363 17.108V17.96ZM19.2683 11.924C19.2683 11.964 19.2483 12 19.2083 12.032C19.1763 12.056 19.1363 12.068 19.0883 12.068H17.4683V15.524C17.4683 15.628 17.4163 15.68 17.3123 15.68H16.2443C16.1403 15.68 16.0883 15.628 16.0883 15.524V7.052C16.0883 6.948 16.1403 6.896 16.2443 6.896H17.3123C17.4163 6.896 17.4683 6.948 17.4683 7.052V10.916H19.0883C19.1363 10.916 19.1763 10.932 19.2083 10.964C19.2483 10.996 19.2683 11.032 19.2683 11.072V11.924ZM28.7654 7.976C28.7654 8.16 28.7574 8.376 28.7414 8.624C28.7334 8.864 28.7134 9.124 28.6814 9.404C28.6574 9.676 28.6254 9.956 28.5854 10.244C28.5454 10.532 28.4974 10.812 28.4414 11.084H30.2054C30.2454 11.084 30.2854 11.108 30.3254 11.156C30.3654 11.196 30.3854 11.236 30.3854 11.276V12.056C30.3854 12.096 30.3654 12.136 30.3254 12.176C30.2854 12.216 30.2454 12.236 30.2054 12.236H25.5734V14.024H27.9134C28.2414 14.024 28.4534 14.08 28.5494 14.192C28.6534 14.304 28.7054 14.536 28.7054 14.888V18.116C28.7054 18.156 28.6854 18.192 28.6454 18.224C28.6134 18.264 28.5774 18.284 28.5374 18.284H27.4934C27.4454 18.284 27.4014 18.264 27.3614 18.224C27.3294 18.192 27.3134 18.156 27.3134 18.116V15.356C27.3134 15.276 27.2974 15.224 27.2654 15.2C27.2334 15.176 27.1734 15.164 27.0854 15.164H21.1814C21.1414 15.164 21.1014 15.152 21.0614 15.128C21.0214 15.096 21.0014 15.06 21.0014 15.02V14.168C21.0014 14.12 21.0214 14.084 21.0614 14.06C21.1014 14.036 21.1414 14.024 21.1814 14.024H24.1934V12.236H19.7534C19.7054 12.236 19.6654 12.216 19.6334 12.176C19.6014 12.136 19.5854 12.096 19.5854 12.056V11.276C19.5854 11.148 19.6414 11.084 19.7534 11.084H27.1694C27.2414 10.692 27.3014 10.288 27.3494 9.872C27.3974 9.448 27.4214 8.996 27.4214 8.516C27.4214 8.404 27.3934 8.336 27.3374 8.312C27.2814 8.28 27.1974 8.264 27.0854 8.264H21.4934C21.4534 8.264 21.4134 8.248 21.3734 8.216C21.3334 8.184 21.3134 8.148 21.3134 8.108V7.28C21.3134 7.232 21.3334 7.196 21.3734 7.172C21.4134 7.148 21.4534 7.136 21.4934 7.136H27.9734C28.2294 7.136 28.4254 7.204 28.5614 7.34C28.6974 7.468 28.7654 7.68 28.7654 7.976ZM34.5066 15.536C34.0506 15.536 33.6386 15.44 33.2706 15.248C32.9106 15.048 32.6026 14.776 32.3466 14.432C32.0986 14.08 31.9066 13.66 31.7706 13.172C31.6346 12.684 31.5666 12.148 31.5666 11.564C31.5666 10.964 31.6346 10.42 31.7706 9.932C31.9066 9.444 32.0986 9.028 32.3466 8.684C32.6026 8.34 32.9106 8.076 33.2706 7.892C33.6386 7.7 34.0506 7.604 34.5066 7.604C34.9306 7.604 35.3146 7.684 35.6586 7.844C36.0026 8.004 36.2986 8.232 36.5466 8.528C36.8026 8.816 37.0066 9.168 37.1586 9.584C37.3106 10 37.4066 10.464 37.4466 10.976H39.2346V7.052C39.2346 6.948 39.2866 6.896 39.3906 6.896H40.4586C40.5626 6.896 40.6146 6.948 40.6146 7.052V18.128C40.6146 18.232 40.5626 18.284 40.4586 18.284H39.3906C39.2866 18.284 39.2346 18.232 39.2346 18.128V12.128H37.4466C37.4066 12.648 37.3106 13.12 37.1586 13.544C37.0066 13.96 36.8026 14.316 36.5466 14.612C36.2986 14.908 36.0026 15.136 35.6586 15.296C35.3146 15.456 34.9306 15.536 34.5066 15.536ZM36.1146 11.564C36.1146 11.196 36.0786 10.848 36.0066 10.52C35.9346 10.184 35.8306 9.892 35.6946 9.644C35.5586 9.396 35.3906 9.2 35.1906 9.056C34.9906 8.904 34.7626 8.828 34.5066 8.828C34.2586 8.828 34.0346 8.904 33.8346 9.056C33.6426 9.2 33.4786 9.396 33.3426 9.644C33.2066 9.892 33.1026 10.184 33.0306 10.52C32.9586 10.848 32.9226 11.196 32.9226 11.564C32.9226 11.924 32.9586 12.272 33.0306 12.608C33.1026 12.936 33.2066 13.228 33.3426 13.484C33.4786 13.732 33.6426 13.932 33.8346 14.084C34.0346 14.236 34.2586 14.312 34.5066 14.312C34.7626 14.312 34.9906 14.236 35.1906 14.084C35.3906 13.932 35.5586 13.732 35.6946 13.484C35.8306 13.228 35.9346 12.936 36.0066 12.608C36.0786 12.272 36.1146 11.924 36.1146 11.564Z" fill="black"/>
</g>
<defs>
<clipPath id="clip0_601_12">
<rect width="50" height="25" fill="white"/>
</clipPath>
</defs>
</svg>
