<svg width="50" height="25" viewBox="0 0 50 25" fill="none" xmlns="http://www.w3.org/2000/svg">
<g clip-path="url(#clip0_601_10)">
<rect x="0.5" y="0.5" width="49" height="24" rx="4.5" fill="white" stroke="black" stroke-linejoin="round"/>
<path d="M9.328 17.96C9.152 17.96 9 17.896 8.872 17.768C8.744 17.64 8.68 17.488 8.68 17.312V8.324C8.68 8.14 8.748 7.98 8.884 7.844C9.02 7.708 9.18 7.64 9.364 7.64H16.636C16.82 7.64 16.98 7.708 17.116 7.844C17.252 7.98 17.32 8.14 17.32 8.324V17.312C17.32 17.488 17.256 17.64 17.128 17.768C17 17.896 16.848 17.96 16.672 17.96H16.66C16.484 17.96 16.336 17.9 16.216 17.78C16.096 17.66 16.036 17.512 16.036 17.336C16.036 17.272 16.004 17.24 15.94 17.24H10.06C10.004 17.24 9.976 17.272 9.976 17.336C9.976 17.512 9.912 17.66 9.784 17.78C9.664 17.9 9.516 17.96 9.34 17.96H9.328ZM9.976 8.852V11.672C9.976 11.744 10.008 11.78 10.072 11.78H15.928C16 11.78 16.036 11.744 16.036 11.672V8.852C16.036 8.78 16 8.744 15.928 8.744H10.072C10.008 8.744 9.976 8.78 9.976 8.852ZM9.976 12.968V16.064C9.976 16.128 10.008 16.16 10.072 16.16H15.928C16 16.16 16.036 16.128 16.036 16.064V12.968C16.036 12.896 16 12.86 15.928 12.86H10.072C10.008 12.86 9.976 12.896 9.976 12.968ZM20.38 16.268C20.252 16.38 20.104 16.428 19.936 16.412C19.768 16.388 19.64 16.304 19.552 16.16C19.456 16.008 19.42 15.84 19.444 15.656C19.468 15.464 19.548 15.304 19.684 15.176C21.436 13.552 22.76 11.908 23.656 10.244C23.672 10.228 23.672 10.212 23.656 10.196C23.648 10.172 23.632 10.16 23.608 10.16H20.248C20.096 10.16 19.964 10.108 19.852 10.004C19.748 9.9 19.696 9.768 19.696 9.608C19.696 9.448 19.748 9.316 19.852 9.212C19.964 9.1 20.096 9.044 20.248 9.044H24.292C24.356 9.044 24.388 9.012 24.388 8.948V7.808C24.388 7.632 24.452 7.48 24.58 7.352C24.708 7.224 24.86 7.16 25.036 7.16C25.212 7.16 25.364 7.224 25.492 7.352C25.62 7.48 25.684 7.632 25.684 7.808V8.948C25.684 9.012 25.716 9.044 25.78 9.044H29.824C29.976 9.044 30.104 9.1 30.208 9.212C30.32 9.316 30.376 9.448 30.376 9.608C30.376 9.768 30.32 9.9 30.208 10.004C30.104 10.108 29.976 10.16 29.824 10.16H26.464C26.44 10.16 26.42 10.172 26.404 10.196C26.396 10.212 26.4 10.228 26.416 10.244C27.312 11.908 28.636 13.552 30.388 15.176C30.524 15.304 30.604 15.464 30.628 15.656C30.652 15.84 30.616 16.008 30.52 16.16C30.432 16.304 30.304 16.388 30.136 16.412C29.976 16.428 29.832 16.38 29.704 16.268C28.152 14.812 26.828 13.148 25.732 11.276C25.724 11.268 25.712 11.264 25.696 11.264C25.688 11.264 25.684 11.272 25.684 11.288V15.008C25.684 15.072 25.716 15.104 25.78 15.104H27.7C27.852 15.104 27.98 15.16 28.084 15.272C28.196 15.376 28.252 15.504 28.252 15.656C28.252 15.808 28.196 15.936 28.084 16.04C27.98 16.136 27.852 16.184 27.7 16.184H25.78C25.716 16.184 25.684 16.22 25.684 16.292V17.552C25.684 17.728 25.62 17.88 25.492 18.008C25.364 18.136 25.212 18.2 25.036 18.2C24.86 18.2 24.708 18.136 24.58 18.008C24.452 17.88 24.388 17.728 24.388 17.552V16.292C24.388 16.22 24.356 16.184 24.292 16.184H22.372C22.22 16.184 22.088 16.136 21.976 16.04C21.872 15.936 21.82 15.808 21.82 15.656C21.82 15.504 21.872 15.376 21.976 15.272C22.088 15.16 22.22 15.104 22.372 15.104H24.292C24.356 15.104 24.388 15.072 24.388 15.008V11.288C24.388 11.272 24.38 11.264 24.364 11.264C24.356 11.256 24.348 11.256 24.34 11.264C23.228 13.168 21.908 14.836 20.38 16.268ZM36.712 12.896C36.568 12.896 36.444 12.844 36.34 12.74C36.244 12.636 36.196 12.512 36.196 12.368C36.196 12.224 36.244 12.1 36.34 11.996C36.444 11.892 36.568 11.84 36.712 11.84H37.324C37.396 11.84 37.44 11.808 37.456 11.744L37.66 10.772C37.668 10.748 37.66 10.724 37.636 10.7C37.62 10.676 37.6 10.664 37.576 10.664H37.168C37.032 10.664 36.912 10.616 36.808 10.52C36.712 10.424 36.664 10.308 36.664 10.172C36.664 10.036 36.712 9.92 36.808 9.824C36.912 9.728 37.032 9.68 37.168 9.68H37.78C37.852 9.68 37.896 9.648 37.912 9.584L38.08 8.792C38.096 8.728 38.068 8.696 37.996 8.696H36.892C36.748 8.696 36.624 8.644 36.52 8.54C36.424 8.436 36.376 8.312 36.376 8.168C36.376 8.024 36.424 7.9 36.52 7.796C36.624 7.692 36.748 7.64 36.892 7.64H41.752C41.896 7.64 42.02 7.692 42.124 7.796C42.228 7.9 42.28 8.024 42.28 8.168C42.28 8.312 42.228 8.436 42.124 8.54C42.02 8.644 41.896 8.696 41.752 8.696H39.496C39.424 8.696 39.38 8.728 39.364 8.792L39.196 9.584C39.18 9.648 39.208 9.68 39.28 9.68H41.056C41.24 9.68 41.4 9.748 41.536 9.884C41.672 10.02 41.74 10.18 41.74 10.364V11.744C41.74 11.808 41.776 11.84 41.848 11.84H42.052C42.196 11.84 42.32 11.892 42.424 11.996C42.528 12.1 42.58 12.224 42.58 12.368C42.58 12.512 42.528 12.636 42.424 12.74C42.32 12.844 42.196 12.896 42.052 12.896H36.712ZM38.956 10.772L38.74 11.744C38.724 11.808 38.752 11.84 38.824 11.84H40.372C40.444 11.84 40.48 11.808 40.48 11.744V10.772C40.48 10.7 40.444 10.664 40.372 10.664H39.076C39.012 10.664 38.972 10.7 38.956 10.772ZM37.288 13.616H41.356C41.54 13.616 41.7 13.684 41.836 13.82C41.972 13.948 42.04 14.104 42.04 14.288V17.3C42.04 17.476 41.976 17.624 41.848 17.744C41.728 17.872 41.58 17.936 41.404 17.936H41.2C41.088 17.936 40.988 17.892 40.9 17.804C40.82 17.724 40.78 17.628 40.78 17.516C40.78 17.476 40.76 17.456 40.72 17.456H37.9C37.86 17.456 37.84 17.476 37.84 17.516C37.84 17.628 37.796 17.724 37.708 17.804C37.628 17.892 37.532 17.936 37.42 17.936H37.228C37.06 17.936 36.916 17.872 36.796 17.744C36.676 17.624 36.616 17.48 36.616 17.312V14.288C36.616 14.104 36.68 13.948 36.808 13.82C36.944 13.684 37.104 13.616 37.288 13.616ZM40.78 16.352V14.732C40.78 14.66 40.744 14.624 40.672 14.624H37.936C37.872 14.624 37.84 14.66 37.84 14.732V16.352C37.84 16.424 37.872 16.46 37.936 16.46H40.672C40.744 16.46 40.78 16.424 40.78 16.352ZM32.452 8.696C32.308 8.696 32.184 8.644 32.08 8.54C31.984 8.436 31.936 8.312 31.936 8.168C31.936 8.024 31.984 7.9 32.08 7.796C32.184 7.692 32.308 7.64 32.452 7.64H35.308C35.452 7.64 35.572 7.692 35.668 7.796C35.772 7.9 35.824 8.024 35.824 8.168C35.824 8.312 35.772 8.436 35.668 8.54C35.572 8.644 35.452 8.696 35.308 8.696H32.452ZM35.62 9.344C35.772 9.344 35.9 9.4 36.004 9.512C36.108 9.616 36.16 9.744 36.16 9.896C36.16 10.048 36.108 10.176 36.004 10.28C35.9 10.376 35.772 10.424 35.62 10.424H32.14C31.988 10.424 31.86 10.376 31.756 10.28C31.652 10.176 31.6 10.048 31.6 9.896C31.6 9.744 31.652 9.616 31.756 9.512C31.86 9.4 31.988 9.344 32.14 9.344H35.62ZM32.536 12.14C32.4 12.14 32.28 12.088 32.176 11.984C32.072 11.88 32.02 11.76 32.02 11.624C32.02 11.488 32.072 11.372 32.176 11.276C32.28 11.172 32.4 11.12 32.536 11.12H35.296C35.432 11.12 35.548 11.172 35.644 11.276C35.748 11.372 35.8 11.488 35.8 11.624C35.8 11.76 35.748 11.88 35.644 11.984C35.548 12.088 35.432 12.14 35.296 12.14H32.536ZM32.536 13.856C32.4 13.856 32.28 13.804 32.176 13.7C32.072 13.596 32.02 13.476 32.02 13.34C32.02 13.204 32.072 13.084 32.176 12.98C32.28 12.876 32.4 12.824 32.536 12.824H35.296C35.432 12.824 35.548 12.876 35.644 12.98C35.748 13.084 35.8 13.204 35.8 13.34C35.8 13.476 35.748 13.596 35.644 13.7C35.548 13.804 35.432 13.856 35.296 13.856H32.536ZM31.936 17.54V15.224C31.936 15.04 32 14.88 32.128 14.744C32.264 14.608 32.424 14.54 32.608 14.54H35.176C35.36 14.54 35.52 14.608 35.656 14.744C35.792 14.88 35.86 15.04 35.86 15.224V16.976C35.86 17.16 35.792 17.32 35.656 17.456C35.52 17.592 35.36 17.66 35.176 17.66H33.196C33.156 17.66 33.136 17.68 33.136 17.72C33.136 17.832 33.092 17.928 33.004 18.008C32.924 18.096 32.828 18.14 32.716 18.14H32.536C32.368 18.14 32.224 18.08 32.104 17.96C31.992 17.848 31.936 17.708 31.936 17.54ZM33.136 15.668V16.544C33.136 16.608 33.168 16.64 33.232 16.64H34.624C34.688 16.64 34.72 16.608 34.72 16.544V15.668C34.72 15.596 34.688 15.56 34.624 15.56H33.232C33.168 15.56 33.136 15.596 33.136 15.668Z" fill="black"/>
</g>
<defs>
<clipPath id="clip0_601_10">
<rect width="50" height="25" fill="white"/>
</clipPath>
</defs>
</svg>
