<svg width="50" height="25" viewBox="0 0 50 25" fill="none" xmlns="http://www.w3.org/2000/svg">
<g clip-path="url(#clip0_604_17)">
<rect x="0.5" y="0.5" width="49" height="24" rx="4.5" fill="white" stroke="black" stroke-linejoin="round"/>
<path d="M15.4218 9.161V11.813H18.5418V13.022H15.4218V15.791H18.9318V17H13.9398V7.952H18.9318V9.161H15.4218ZM24.3712 9.72C24.9346 9.72 25.4372 9.837 25.8792 10.071C26.3299 10.305 26.6809 10.6517 26.9322 11.111C27.1836 11.5703 27.3092 12.125 27.3092 12.775V17H25.8402V12.996C25.8402 12.3547 25.6799 11.865 25.3592 11.527C25.0386 11.1803 24.6009 11.007 24.0462 11.007C23.4916 11.007 23.0496 11.1803 22.7202 11.527C22.3996 11.865 22.2392 12.3547 22.2392 12.996V17H20.7572V9.837H22.2392V10.656C22.4819 10.3613 22.7896 10.1317 23.1622 9.967C23.5436 9.80233 23.9466 9.72 24.3712 9.72ZM32.0856 9.72C32.6403 9.72 33.1299 9.83267 33.5546 10.058C33.9879 10.2747 34.3259 10.5477 34.5686 10.877V9.837H36.0636V17.117C36.0636 17.7757 35.9249 18.3607 35.6476 18.872C35.3703 19.392 34.9673 19.7993 34.4386 20.094C33.9186 20.3887 33.2946 20.536 32.5666 20.536C31.5959 20.536 30.7899 20.3063 30.1486 19.847C29.5073 19.3963 29.1433 18.781 29.0566 18.001H30.5256C30.6383 18.3737 30.8766 18.6727 31.2406 18.898C31.6133 19.132 32.0553 19.249 32.5666 19.249C33.1646 19.249 33.6456 19.067 34.0096 18.703C34.3823 18.339 34.5686 17.8103 34.5686 17.117V15.921C34.3173 16.259 33.9749 16.545 33.5416 16.779C33.1169 17.0043 32.6316 17.117 32.0856 17.117C31.4616 17.117 30.8896 16.961 30.3696 16.649C29.8583 16.3283 29.4509 15.8863 29.1476 15.323C28.8529 14.751 28.7056 14.1053 28.7056 13.386C28.7056 12.6667 28.8529 12.0297 29.1476 11.475C29.4509 10.9203 29.8583 10.4913 30.3696 10.188C30.8896 9.876 31.4616 9.72 32.0856 9.72ZM34.5686 13.412C34.5686 12.918 34.4646 12.489 34.2566 12.125C34.0573 11.761 33.7929 11.4837 33.4636 11.293C33.1343 11.1023 32.7789 11.007 32.3976 11.007C32.0163 11.007 31.6609 11.1023 31.3316 11.293C31.0023 11.475 30.7336 11.748 30.5256 12.112C30.3263 12.4673 30.2266 12.892 30.2266 13.386C30.2266 13.88 30.3263 14.3133 30.5256 14.686C30.7336 15.0587 31.0023 15.3447 31.3316 15.544C31.6696 15.7347 32.0249 15.83 32.3976 15.83C32.7789 15.83 33.1343 15.7347 33.4636 15.544C33.7929 15.3533 34.0573 15.076 34.2566 14.712C34.4646 14.3393 34.5686 13.906 34.5686 13.412Z" fill="black"/>
</g>
<defs>
<clipPath id="clip0_604_17">
<rect width="50" height="25" fill="white"/>
</clipPath>
</defs>
</svg>
