<svg width="270" height="71" viewBox="0 0 270 71" fill="none" xmlns="http://www.w3.org/2000/svg">
<g clip-path="url(#clip0_603_4)">
<rect x="0.5" y="0.5" width="269" height="70" rx="9.5" fill="white" stroke="black" stroke-linejoin="round"/>
<path d="M86.9565 34.44V51H85.2765V37.776L79.3725 51H78.1485L72.2445 37.824V51H70.5645V34.44H72.3405L78.7485 48.792L85.1565 34.44H86.9565ZM89.9997 44.424C89.9997 43.08 90.2637 41.904 90.7917 40.896C91.3357 39.872 92.0797 39.088 93.0237 38.544C93.9837 37.984 95.0637 37.704 96.2637 37.704C97.5117 37.704 98.5837 37.992 99.4797 38.568C100.392 39.144 101.048 39.88 101.448 40.776V37.896H103.128V51H101.448V48.096C101.032 48.992 100.368 49.736 99.4557 50.328C98.5597 50.904 97.4877 51.192 96.2397 51.192C95.0557 51.192 93.9837 50.912 93.0237 50.352C92.0797 49.792 91.3357 49 90.7917 47.976C90.2637 46.952 89.9997 45.768 89.9997 44.424ZM101.448 44.448C101.448 43.392 101.232 42.464 100.8 41.664C100.368 40.864 99.7757 40.248 99.0237 39.816C98.2877 39.384 97.4717 39.168 96.5757 39.168C95.6477 39.168 94.8157 39.376 94.0797 39.792C93.3437 40.208 92.7597 40.816 92.3277 41.616C91.9117 42.4 91.7037 43.336 91.7037 44.424C91.7037 45.496 91.9117 46.44 92.3277 47.256C92.7597 48.056 93.3437 48.672 94.0797 49.104C94.8157 49.52 95.6477 49.728 96.5757 49.728C97.4717 49.728 98.2877 49.512 99.0237 49.08C99.7757 48.648 100.368 48.032 100.8 47.232C101.232 46.432 101.448 45.504 101.448 44.448ZM107.803 35.424C107.467 35.424 107.179 35.304 106.939 35.064C106.699 34.824 106.579 34.528 106.579 34.176C106.579 33.824 106.699 33.536 106.939 33.312C107.179 33.072 107.467 32.952 107.803 32.952C108.139 32.952 108.427 33.072 108.667 33.312C108.907 33.536 109.027 33.824 109.027 34.176C109.027 34.528 108.907 34.824 108.667 35.064C108.427 35.304 108.139 35.424 107.803 35.424ZM108.643 37.896V51H106.963V37.896H108.643ZM118.591 37.656C120.159 37.656 121.439 38.144 122.431 39.12C123.423 40.08 123.919 41.48 123.919 43.32V51H122.263V43.512C122.263 42.088 121.903 41 121.183 40.248C120.479 39.496 119.511 39.12 118.279 39.12C117.015 39.12 116.007 39.52 115.255 40.32C114.503 41.12 114.127 42.296 114.127 43.848V51H112.447V37.896H114.127V40.128C114.543 39.328 115.143 38.72 115.927 38.304C116.711 37.872 117.599 37.656 118.591 37.656ZM143.149 51L138.997 43.992H135.901V51H134.221V34.224H139.261C141.133 34.224 142.549 34.672 143.509 35.568C144.485 36.464 144.973 37.64 144.973 39.096C144.973 40.312 144.621 41.352 143.917 42.216C143.229 43.064 142.205 43.616 140.845 43.872L145.165 51H143.149ZM135.901 42.624H139.285C140.597 42.624 141.581 42.304 142.237 41.664C142.909 41.024 143.245 40.168 143.245 39.096C143.245 37.992 142.925 37.144 142.285 36.552C141.645 35.944 140.637 35.64 139.261 35.64H135.901V42.624ZM160.163 43.776C160.163 44.352 160.147 44.792 160.115 45.096H149.243C149.291 46.088 149.531 46.936 149.963 47.64C150.395 48.344 150.963 48.88 151.667 49.248C152.371 49.6 153.139 49.776 153.971 49.776C155.059 49.776 155.971 49.512 156.707 48.984C157.459 48.456 157.955 47.744 158.195 46.848H159.971C159.651 48.128 158.963 49.176 157.907 49.992C156.867 50.792 155.555 51.192 153.971 51.192C152.739 51.192 151.635 50.92 150.659 50.376C149.683 49.816 148.915 49.032 148.355 48.024C147.811 47 147.539 45.808 147.539 44.448C147.539 43.088 147.811 41.896 148.355 40.872C148.899 39.848 149.659 39.064 150.635 38.52C151.611 37.976 152.723 37.704 153.971 37.704C155.219 37.704 156.307 37.976 157.235 38.52C158.179 39.064 158.899 39.8 159.395 40.728C159.907 41.64 160.163 42.656 160.163 43.776ZM158.459 43.728C158.475 42.752 158.275 41.92 157.859 41.232C157.459 40.544 156.907 40.024 156.203 39.672C155.499 39.32 154.731 39.144 153.899 39.144C152.651 39.144 151.587 39.544 150.707 40.344C149.827 41.144 149.339 42.272 149.243 43.728H158.459ZM164.892 40.776C165.308 39.896 165.964 39.168 166.86 38.592C167.772 38 168.852 37.704 170.1 37.704C171.284 37.704 172.348 37.984 173.292 38.544C174.252 39.088 174.996 39.872 175.524 40.896C176.068 41.904 176.34 43.08 176.34 44.424C176.34 45.768 176.068 46.952 175.524 47.976C174.996 49 174.252 49.792 173.292 50.352C172.348 50.912 171.284 51.192 170.1 51.192C168.868 51.192 167.796 50.904 166.884 50.328C165.972 49.736 165.308 49 164.892 48.12V57.192H163.236V37.896H164.892V40.776ZM174.636 44.424C174.636 43.336 174.42 42.4 173.988 41.616C173.572 40.816 172.996 40.208 172.26 39.792C171.524 39.376 170.692 39.168 169.764 39.168C168.868 39.168 168.044 39.384 167.292 39.816C166.556 40.248 165.972 40.864 165.54 41.664C165.108 42.464 164.892 43.392 164.892 44.448C164.892 45.504 165.108 46.432 165.54 47.232C165.972 48.032 166.556 48.648 167.292 49.08C168.044 49.512 168.868 49.728 169.764 49.728C170.692 49.728 171.524 49.52 172.26 49.104C172.996 48.672 173.572 48.056 173.988 47.256C174.42 46.44 174.636 45.496 174.636 44.424ZM185.168 51.192C183.936 51.192 182.824 50.92 181.832 50.376C180.856 49.816 180.08 49.032 179.504 48.024C178.944 47 178.664 45.808 178.664 44.448C178.664 43.088 178.952 41.904 179.528 40.896C180.104 39.872 180.888 39.088 181.88 38.544C182.872 37.984 183.984 37.704 185.216 37.704C186.448 37.704 187.56 37.984 188.552 38.544C189.56 39.088 190.344 39.872 190.904 40.896C191.48 41.904 191.768 43.088 191.768 44.448C191.768 45.792 191.48 46.976 190.904 48C190.328 49.024 189.536 49.816 188.528 50.376C187.52 50.92 186.4 51.192 185.168 51.192ZM185.168 49.728C186.032 49.728 186.832 49.536 187.568 49.152C188.304 48.752 188.896 48.16 189.344 47.376C189.808 46.576 190.04 45.6 190.04 44.448C190.04 43.296 189.816 42.328 189.368 41.544C188.92 40.744 188.328 40.152 187.592 39.768C186.856 39.368 186.056 39.168 185.192 39.168C184.328 39.168 183.528 39.368 182.792 39.768C182.056 40.152 181.464 40.744 181.016 41.544C180.584 42.328 180.368 43.296 180.368 44.448C180.368 45.6 180.584 46.576 181.016 47.376C181.464 48.16 182.048 48.752 182.768 49.152C183.504 49.536 184.304 49.728 185.168 49.728ZM199.342 51.192C197.838 51.192 196.606 50.848 195.646 50.16C194.702 49.456 194.174 48.504 194.062 47.304H195.79C195.87 48.04 196.214 48.64 196.822 49.104C197.446 49.552 198.278 49.776 199.318 49.776C200.23 49.776 200.942 49.56 201.454 49.128C201.982 48.696 202.246 48.16 202.246 47.52C202.246 47.072 202.102 46.704 201.814 46.416C201.526 46.128 201.158 45.904 200.71 45.744C200.278 45.568 199.686 45.384 198.934 45.192C197.958 44.936 197.166 44.68 196.558 44.424C195.95 44.168 195.43 43.792 194.998 43.296C194.582 42.784 194.374 42.104 194.374 41.256C194.374 40.616 194.566 40.024 194.95 39.48C195.334 38.936 195.878 38.504 196.582 38.184C197.286 37.864 198.086 37.704 198.982 37.704C200.39 37.704 201.526 38.064 202.39 38.784C203.254 39.488 203.718 40.464 203.782 41.712H202.102C202.054 40.944 201.75 40.328 201.19 39.864C200.646 39.384 199.894 39.144 198.934 39.144C198.086 39.144 197.398 39.344 196.87 39.744C196.342 40.144 196.078 40.64 196.078 41.232C196.078 41.744 196.23 42.168 196.534 42.504C196.854 42.824 197.246 43.08 197.71 43.272C198.174 43.448 198.798 43.648 199.582 43.872C200.526 44.128 201.278 44.376 201.838 44.616C202.398 44.856 202.878 45.208 203.278 45.672C203.678 46.136 203.886 46.752 203.902 47.52C203.902 48.224 203.71 48.856 203.326 49.416C202.942 49.96 202.406 50.392 201.718 50.712C201.03 51.032 200.238 51.192 199.342 51.192ZM207.905 35.424C207.569 35.424 207.281 35.304 207.041 35.064C206.801 34.824 206.681 34.528 206.681 34.176C206.681 33.824 206.801 33.536 207.041 33.312C207.281 33.072 207.569 32.952 207.905 32.952C208.241 32.952 208.529 33.072 208.769 33.312C209.009 33.536 209.129 33.824 209.129 34.176C209.129 34.528 209.009 34.824 208.769 35.064C208.529 35.304 208.241 35.424 207.905 35.424ZM208.745 37.896V51H207.065V37.896H208.745ZM214.733 39.312V47.448C214.733 48.248 214.885 48.8 215.189 49.104C215.493 49.408 216.029 49.56 216.797 49.56H218.333V51H216.533C215.349 51 214.469 50.728 213.893 50.184C213.317 49.624 213.029 48.712 213.029 47.448V39.312H211.205V37.896H213.029V34.608H214.733V37.896H218.333V39.312H214.733ZM226.84 51.192C225.608 51.192 224.496 50.92 223.504 50.376C222.528 49.816 221.752 49.032 221.176 48.024C220.616 47 220.336 45.808 220.336 44.448C220.336 43.088 220.624 41.904 221.2 40.896C221.776 39.872 222.56 39.088 223.552 38.544C224.544 37.984 225.656 37.704 226.888 37.704C228.12 37.704 229.232 37.984 230.224 38.544C231.232 39.088 232.016 39.872 232.576 40.896C233.152 41.904 233.44 43.088 233.44 44.448C233.44 45.792 233.152 46.976 232.576 48C232 49.024 231.208 49.816 230.2 50.376C229.192 50.92 228.072 51.192 226.84 51.192ZM226.84 49.728C227.704 49.728 228.504 49.536 229.24 49.152C229.976 48.752 230.568 48.16 231.016 47.376C231.48 46.576 231.712 45.6 231.712 44.448C231.712 43.296 231.488 42.328 231.04 41.544C230.592 40.744 230 40.152 229.264 39.768C228.528 39.368 227.728 39.168 226.864 39.168C226 39.168 225.2 39.368 224.464 39.768C223.728 40.152 223.136 40.744 222.688 41.544C222.256 42.328 222.04 43.296 222.04 44.448C222.04 45.6 222.256 46.576 222.688 47.376C223.136 48.16 223.72 48.752 224.44 49.152C225.176 49.536 225.976 49.728 226.84 49.728ZM238.182 40.224C238.55 39.408 239.11 38.776 239.862 38.328C240.63 37.88 241.566 37.656 242.67 37.656V39.408H242.214C240.998 39.408 240.022 39.736 239.286 40.392C238.55 41.048 238.182 42.144 238.182 43.68V51H236.502V37.896H238.182V40.224ZM255.997 37.896L248.221 57.168H246.469L249.013 50.928L243.637 37.896H245.485L249.949 49.08L254.269 37.896H255.997Z" fill="black"/>
<path d="M71.684 25.896H74.504V27H70.316V18.66H71.684V25.896ZM76.344 19.512C76.096 19.512 75.888 19.428 75.72 19.26C75.552 19.092 75.468 18.884 75.468 18.636C75.468 18.388 75.552 18.18 75.72 18.012C75.888 17.844 76.096 17.76 76.344 17.76C76.584 17.76 76.788 17.844 76.956 18.012C77.124 18.18 77.208 18.388 77.208 18.636C77.208 18.884 77.124 19.092 76.956 19.26C76.788 19.428 76.584 19.512 76.344 19.512ZM77.016 20.388V27H75.648V20.388H77.016ZM82.1481 20.28C82.6681 20.28 83.1321 20.388 83.5401 20.604C83.9561 20.82 84.2801 21.14 84.5121 21.564C84.7441 21.988 84.8601 22.5 84.8601 23.1V27H83.5041V23.304C83.5041 22.712 83.3561 22.26 83.0601 21.948C82.7641 21.628 82.3601 21.468 81.8481 21.468C81.3361 21.468 80.9281 21.628 80.6241 21.948C80.3281 22.26 80.1801 22.712 80.1801 23.304V27H78.8121V20.388H80.1801V21.144C80.4041 20.872 80.6881 20.66 81.0321 20.508C81.3841 20.356 81.7561 20.28 82.1481 20.28ZM89.2211 23.7L92.2691 27H90.4211L87.9731 24.156V27H86.6051V18.12H87.9731V23.28L90.3731 20.388H92.2691L89.2211 23.7ZM97.9628 21.504V25.164C97.9628 25.412 98.0188 25.592 98.1308 25.704C98.2508 25.808 98.4508 25.86 98.7308 25.86H99.5708V27H98.4908C97.8748 27 97.4028 26.856 97.0748 26.568C96.7468 26.28 96.5828 25.812 96.5828 25.164V21.504H95.8028V20.388H96.5828V18.744H97.9628V20.388H99.5708V21.504H97.9628ZM103.7 27.108C103.076 27.108 102.512 26.968 102.008 26.688C101.504 26.4 101.108 26 100.82 25.488C100.532 24.968 100.388 24.368 100.388 23.688C100.388 23.016 100.536 22.42 100.832 21.9C101.128 21.38 101.532 20.98 102.044 20.7C102.556 20.42 103.128 20.28 103.76 20.28C104.392 20.28 104.964 20.42 105.476 20.7C105.988 20.98 106.392 21.38 106.688 21.9C106.984 22.42 107.132 23.016 107.132 23.688C107.132 24.36 106.98 24.956 106.676 25.476C106.372 25.996 105.956 26.4 105.428 26.688C104.908 26.968 104.332 27.108 103.7 27.108ZM103.7 25.92C104.052 25.92 104.38 25.836 104.684 25.668C104.996 25.5 105.248 25.248 105.44 24.912C105.632 24.576 105.728 24.168 105.728 23.688C105.728 23.208 105.636 22.804 105.452 22.476C105.268 22.14 105.024 21.888 104.72 21.72C104.416 21.552 104.088 21.468 103.736 21.468C103.384 21.468 103.056 21.552 102.752 21.72C102.456 21.888 102.22 22.14 102.044 22.476C101.868 22.804 101.78 23.208 101.78 23.688C101.78 24.4 101.96 24.952 102.32 25.344C102.688 25.728 103.148 25.92 103.7 25.92Z" fill="black"/>
<path d="M26.5098 15.1875C24.5623 15.1875 22.1954 16.5551 21.2217 18.2417L12.7315 32.9458C11.7577 34.6324 11.7577 37.3676 12.7315 39.0542L21.2217 53.7583C22.1954 55.4449 24.5623 56.8125 26.5098 56.8125H43.4902C45.4377 56.8125 47.8046 55.4449 48.7783 53.7583L57.2685 39.0542C58.2425 37.3676 58.2425 34.6324 57.2685 32.9458L48.7783 18.2417C47.8046 16.5551 45.4377 15.1875 43.4902 15.1875H26.5098ZM27.4253 20.5298H42.5747C43.3245 20.5298 44.2359 21.0567 44.6108 21.706L47.0308 25.8955C47.3076 26.3769 47.0815 26.7671 46.5254 26.7671H29.0308C28.7201 26.7671 28.4683 27.0189 28.4683 27.3296V33.3589C28.4683 33.6696 28.7201 33.9214 29.0308 33.9214H51.0679C51.3964 33.9214 51.7957 34.1525 51.9599 34.437L52.1841 34.8237C52.559 35.4731 52.559 36.5269 52.1841 37.1763L50.7237 39.706C50.5528 39.9955 50.1462 40.229 49.8111 40.229H29.0308C28.7201 40.229 28.4683 40.4808 28.4683 40.7915V50.7202C28.4683 51.1344 28.1325 51.4702 27.7183 51.4702H27.4253C26.6755 51.4702 25.7641 50.9433 25.3892 50.294L17.8159 37.1763C17.441 36.5269 17.441 35.4731 17.8159 34.8237L25.3892 21.706C25.7641 21.0567 26.6755 20.5298 27.4253 20.5298Z" fill="#5309E8"/>
</g>
<defs>
<clipPath id="clip0_603_4">
<rect width="270" height="71" fill="white"/>
</clipPath>
</defs>
</svg>
