<svg xmlns="http://www.w3.org/2000/svg" viewBox="0 0 512 512">
  <path fill="context-fill #20123a" d="M165.437 34C144.664 34 119.418 48.588 109.031 66.5781L18.4687 223.422C8.08217 241.412 8.08217 270.588 18.4687 288.578L109.031 445.422C119.418 463.412 144.664 478 165.437 478L346.562 478C367.336 478 392.582 463.412 402.969 445.422L493.531 288.578C503.918 270.588 503.918 241.412 493.531 223.422L402.969 66.5781C392.582 48.588 367.336 34 346.562 34L165.437 34ZM175.203 90.9844L336.797 90.9844C344.794 90.9844 354.517 96.6049 358.516 103.531L384.328 148.219C387.281 153.353 384.869 157.516 378.937 157.516L192.328 157.516C189.014 157.516 186.328 160.202 186.328 163.516L186.328 227.828C186.328 231.142 189.014 233.828 192.328 233.828L427.391 233.828C430.895 233.828 435.154 236.293 436.906 239.328L439.297 243.453C443.296 250.38 443.296 261.621 439.297 268.547L423.719 295.531C421.896 298.619 417.559 301.109 413.984 301.109L192.328 301.109C189.014 301.109 186.328 303.796 186.328 307.109L186.328 413.016C186.328 417.434 182.746 421.016 178.328 421.016L175.203 421.016C167.205 421.016 157.483 415.395 153.484 408.469L72.7031 268.547C68.7042 261.621 68.7042 250.38 72.7031 243.453L153.484 103.531C157.483 96.6049 167.205 90.9844 175.203 90.9844Z"/>
</svg>
