<?xml version="1.0" encoding="UTF-8" standalone="no"?>
<!-- Created with Inkscape (http://www.inkscape.org/) -->

<svg
   width="90.993713mm"
   height="79.600555mm"
   viewBox="0 0 90.993714 79.600555"
   version="1.1"
   id="svg80"
   xmlns:xlink="http://www.w3.org/1999/xlink"
   xmlns="http://www.w3.org/2000/svg"
   xmlns:svg="http://www.w3.org/2000/svg"
   xmlns:rdf="http://www.w3.org/1999/02/22-rdf-syntax-ns#"
   xmlns:cc="http://creativecommons.org/ns#"
   xmlns:dc="http://purl.org/dc/elements/1.1/">
  <defs
     id="defs74">
    <linearGradient
       xlink:href="#linearGradient70"
       id="linearGradient72"
       x1="-74.300926"
       y1="271.60941"
       x2="-15.410747"
       y2="263.85263"
       gradientUnits="userSpaceOnUse"
       gradientTransform="translate(-65.503734,-62.320336)" />
    <linearGradient
       id="linearGradient70">
      <stop
         style="stop-color:#22600e;stop-opacity:1"
         offset="0"
         id="stop66" />
      <stop
         style="stop-color:#7bc005;stop-opacity:1"
         offset="1"
         id="stop68" />
</linearGradient>
</defs>
  <metadata
     id="metadata77">
    <rdf:RDF>
      <cc:Work
         rdf:about="">
        <dc:format>image/svg+xml</dc:format>
        <dc:type
           rdf:resource="http://purl.org/dc/dcmitype/StillImage" />
        <dc:title />
      </cc:Work>
    </rdf:RDF>
  </metadata>
  <g
     id="layer1"
     transform="translate(139.9909,-161.94973)">
    <path
       style="fill:url(#linearGradient72);fill-opacity:1;stroke-width:0.357243"
       d="m -113.60225,241.02206 c -3.41323,-0.7299 -6.64989,-1.86372 -9.39277,-3.29036 -2.86808,-1.49175 -3.96546,-2.6938 -3.64065,-3.98792 0.59974,-2.38955 5.79567,-7.68898 9.65482,-9.84714 2.03106,-1.13583 2.51043,-1.25551 5.04424,-1.25935 2.93412,-0.004 5.58982,-0.55133 7.51564,-1.5477 0.62882,-0.32533 1.22277,-0.59152 1.3199,-0.59152 0.0971,0 -0.21758,0.861 -0.69935,1.91334 -2.21265,4.83305 -1.88524,10.40064 0.94085,15.99909 1.48523,2.94223 1.17206,3.17343 -4.2485,3.13653 -2.29465,-0.0156 -5.21703,-0.25186 -6.49418,-0.52497 z m 12.49863,-1.50078 c -1.55574,-1.40491 -2.92815,-5.52315 -3.1309,-9.39502 -0.27153,-5.18543 1.00665,-9.10446 3.85324,-11.81446 0.747093,-0.71125 1.777489,-1.95713 2.289772,-2.76864 0.512281,-0.81151 1.024211,-1.47547 1.137622,-1.47547 0.113411,0 1.116139,0.81668 2.228286,1.81483 2.52943,2.27016 8.28942,5.14077 12.891357,6.42468 4.09371,1.14212 4.22416,1.4004 2.249525,4.45393 -3.736605,5.77821 -9.684544,10.53961 -16.021587,12.82551 -3.226536,1.16388 -4.148238,1.15292 -5.497315,-0.0654 z m -28.50203,-6.36185 c -2.3903,-2.04601 -6.01798,-7.18928 -7.57545,-10.74037 -2.73046,-6.22554 -2.31003,-7.79902 2.07503,-7.76594 3.08902,0.0233 5.68923,0.83256 8.92058,2.77632 1.42977,0.86006 3.16291,1.66942 3.8514,1.79858 0.6885,0.12917 1.81616,0.61781 2.50591,1.08589 0.68974,0.46808 2.07717,1.12443 3.08315,1.45857 l 1.82907,0.60752 -1.57591,0.60161 c -3.86345,1.47488 -8.23296,5.40222 -10.26002,9.22176 -0.65009,1.22495 -1.224,2.22719 -1.27536,2.22719 -0.0513,0 -0.76163,-0.57201 -1.5784,-1.27113 z m 47.164641,-11.77853 c -6.015249,-2.04916 -14.671244,-7.164 -14.155325,-8.36439 0.847008,-1.97075 1.568477,-5.59273 1.780051,-8.93632 0.135114,-2.13528 0.366728,-4.07821 0.514702,-4.31764 0.205668,-0.33278 0.84632,-0.26138 2.719776,0.30312 4.505931,1.35772 8.243414,2.06714 14.507906,2.75377 2.924487,0.32055 3.12806,0.63142 3.113198,4.75408 -0.01416,3.9228 -0.638603,7.90584 -1.774756,11.31997 -0.598913,1.79975 -1.010279,2.4542 -1.798965,2.86205 -1.359583,0.70306 -1.853769,0.66533 -4.906587,-0.37464 z m -32.101301,0.029 c -1.20473,-0.27087 -2.71958,-0.76612 -3.36633,-1.10057 l -1.17591,-0.60809 2.47322,-1.14597 c 2.45319,-1.13668 5.03497,-3.50469 6.47035,-5.9346 l 0.58801,-0.99542 1.63711,1.37241 c 2.3496,1.96971 4.19858,2.61244 7.00185,2.43394 1.273793,-0.0811 2.315243,-0.0595 2.314331,0.0481 -0.0036,0.41505 -2.227671,2.54239 -3.761231,3.59751 -3.33188,2.29239 -8.20781,3.22612 -12.1814,2.33271 z m -8.95659,-3.19378 c -0.82579,-0.26989 -2.53506,-1.1435 -3.79837,-1.94135 -3.98908,-2.51933 -5.54977,-2.81415 -11.28308,-2.1314 -1.28394,0.1529 -1.57925,-1.49079 -1.32935,-7.3992 0.2204,-5.21088 1.19367,-10.36503 2.06923,-10.95802 1.3423,-0.90909 6.59022,0.89355 8.81724,3.02869 0.65496,0.62794 2.0706,2.45922 3.14588,4.06952 2.99044,4.47836 4.79282,5.83228 7.74351,5.8168 2.79232,-0.0146 5.85556,-2.01855 8.84007,-5.78295 1.0959,-1.38227 1.37945,-2.08348 1.58908,-3.92967 0.24734,-2.1783 0.64284,-3.14029 1.29105,-3.14029 0.17243,0 0.31665,0.60284 0.3205,1.33966 l 0.007,1.33966 1.28682,-1.53494 c 1.4191,-1.69272 3.65289,-3.3595 4.11752,-3.07234 0.63666,0.39348 0.24289,1.46506 -0.95278,2.59286 -0.6877,0.64865 -1.25036,1.33655 -1.25036,1.52866 0,0.39318 0.4006,0.19129 1.99856,-1.00721 2.429448,-1.82213 3.251566,-0.22304 0.85939,1.67159 -1.84299,1.45968 -1.83453,1.91754 0.02962,1.60259 1.378545,-0.2329 1.452065,-0.20097 1.339662,0.58185 -0.08413,0.58598 -0.464503,0.92697 -1.300205,1.16562 -0.668747,0.19098 -1.780087,1.01762 -2.561427,1.90527 -0.97519,1.10788 -1.74444,1.62705 -2.62171,1.76942 -1.09826,0.17822 -1.519,0.6116 -3.6454,3.75498 -2.86661,4.2376 -5.08095,6.58211 -7.4732,7.91251 -2.13953,1.18986 -5.08313,1.52235 -7.23924,0.81769 z m 4.71663,-10.39799 c -0.19649,-0.0651 -0.80339,-0.21688 -1.34867,-0.3373 -1.20207,-0.26545 -3.52666,-2.30851 -4.90344,-4.3096 l -1.01162,-1.47034 0.98288,-2.3297 c 2.29071,-5.4296 5.95099,-8.91693 10.38914,-9.89824 2.12479,-0.46981 5.21797,-1.74383 4.93087,-2.03092 -0.0973,-0.0973 -1.22951,0.21927 -2.51601,0.7035 -1.28649,0.48424 -3.16615,0.99015 -4.177,1.12424 -1.08969,0.14455 -1.78463,0.40371 -1.707,0.63658 0.072,0.21603 -0.48302,0.83752 -1.23339,1.38109 -0.75038,0.54357 -1.8716,1.51079 -2.4916,2.14938 -1.39798,1.4399 -3.8331,5.1351 -4.10936,6.23581 -0.11316,0.45088 -0.28862,0.81978 -0.38991,0.81978 -0.1013,0 -0.82319,-0.72596 -1.6042,-1.61324 -1.82977,-2.07873 -3.92108,-3.28779 -6.56165,-3.79354 -2.83432,-0.54285 -3.1488,-0.98784 -2.27135,-3.21395 1.92302,-4.87873 3.14237,-6.38349 5.17276,-6.38349 1.19079,0 1.98032,0.48064 2.64076,1.60759 0.38305,0.65363 0.39878,0.63842 0.18469,-0.17862 -0.42175,-1.60955 -1.06753,-1.96375 -3.4379,-1.88567 -2.62233,0.0864 -3.67225,-0.3103 -2.49246,-0.9417 1.22814,-0.65728 0.92648,-1.39246 -0.74667,-1.81973 -0.83506,-0.21325 -1.96037,-0.56047 -2.5007,-0.7716 -1.21242,-0.47374 -1.32381,-1.64332 -0.17862,-1.87556 2.59781,-0.52685 2.76863,-0.60337 2.76863,-1.24033 0,-0.3639 -0.56014,-1.04407 -1.24476,-1.51148 -1.39047,-0.94933 -1.84493,-1.73619 -1.2243,-2.11975 0.22719,-0.14042 1.34871,-0.36116 2.49226,-0.49054 1.14355,-0.12937 2.42299,-0.51362 2.84319,-0.85388 0.67931,-0.55008 0.71435,-0.72765 0.31602,-1.60187 -0.28287,-0.62085 -0.32292,-1.10827 -0.10866,-1.32254 0.18662,-0.18662 2.02296,-0.67221 4.08074,-1.07908 5.2003,-1.02822 8.20861,-1.89681 14.81597,-4.27782 10.12446,-3.6484 13.632516,-4.00269 18.143249,-1.83232 4.112887,1.97895 8.967893,7.26734 8.291052,9.03116 -0.23219,0.60507 -1.018061,0.93277 -7.143155,2.97856 -4.786717,1.59877 -11.306626,3.04031 -13.750916,3.04031 -1.44065,0 -2.13095,0.5156 -1.51498,1.13158 0.67089,0.67089 11.302422,-1.93509 17.703513,-4.33945 2.103096,-0.78996 4.002487,-1.43629 4.220874,-1.43629 0.652719,0 0.05896,2.03573 -1.0741,3.68257 -1.104452,1.60527 -3.890647,3.92662 -7.346735,6.12102 -2.442205,1.55064 -8.590242,7.56714 -11.038812,10.80263 -2.22979,2.94639 -4.21941,6.9371 -4.44166,8.90891 -0.18919,1.67844 -1.0127,2.57771 -3.4773,3.7972 -1.12595,0.55713 -3.32213,1.00794 -3.92967,0.80664 z m 12.1708,-34.65484 c 0.72917,-0.68769 1.48372,-1.25035 1.67678,-1.25035 0.57641,0 -0.41262,-0.979 -2.1549,-2.13304 -1.90864,-1.26423 -4.17754,-1.44678 -5.83236,-0.46926 -1.19064,0.70333 -1.26181,1.11969 -0.46311,2.70935 0.87411,1.73976 1.88235,2.37671 3.77637,2.38571 1.42512,0.007 1.86686,-0.17633 2.99722,-1.24241 z m 12.657609,-2.67928 c 0,-0.19648 -0.160761,-0.35724 -0.357243,-0.35724 -0.196485,0 -0.357243,0.16076 -0.357243,0.35724 0,0.19648 0.160758,0.35724 0.357243,0.35724 0.196482,0 0.357243,-0.16076 0.357243,-0.35724 z m 13.039381,31.04827 c -5.279138,-0.88732 -10.852811,-2.05638 -12.061507,-2.52986 -1.362332,-0.53368 -1.486956,-1.43012 -0.82568,-5.93929 0.650407,-4.43509 1.462217,-7.482 2.220857,-8.3354 0.726945,-0.81775 3.80097,-1.34392 9.419016,-1.61223 5.125955,-0.2448 5.464595,-0.15807 5.768152,1.47722 0.105476,0.56821 0.327932,0.37807 1.100997,-0.94106 1.898441,-3.23945 5.247182,-5.6602 9.813375,-7.09395 l 2.069714,-0.64988 -1.428973,-0.0404 c -0.785937,-0.0222 -2.152393,-0.3765 -3.03657,-0.78724 -2.629318,-1.22145 -4.999283,-1.72812 -8.216595,-1.75661 -2.433331,-0.0215 -2.859149,-0.0996 -2.143461,-0.39291 0.520951,-0.21351 2.679464,-0.29997 5.180028,-0.2075 3.602109,0.13321 4.799597,0.33518 7.496276,1.26429 1.765146,0.60816 3.265569,1.27438 3.334273,1.48049 0.0687,0.20611 0.412409,0.37474 0.763794,0.37474 1.095481,0 5.799043,3.33162 8.321755,5.89445 3.478535,3.53386 5.011348,6.91815 3.646429,8.05093 -0.745831,0.61898 -2.420853,0.17341 -7.92466,-2.10807 -2.402274,-0.9958 -5.376323,-2.08341 -6.609003,-2.41692 -3.105333,-0.84015 -8.074456,-0.77704 -10.636459,0.13509 l -1.964838,0.69953 0.10084,2.10667 c 0.05546,1.15867 0.40844,3.40888 0.784397,5.00047 0.768541,3.25354 1.270069,6.48372 1.131502,7.28764 -0.112829,0.65458 -1.407822,1.80228 -1.967003,1.74327 -0.22384,-0.0236 -2.175335,-0.34017 -4.336656,-0.70344 z m -9.635164,-19.30039 c 1.420376,-2.7953 4.344918,-5.80412 7.126586,-7.33194 1.687619,-0.92692 2.024777,-0.97713 6.609001,-0.98417 3.902088,-0.006 5.208074,0.12698 6.794058,0.69179 2.567765,0.91446 2.643034,1.5444 0.316497,2.64897 -1.020797,0.48464 -2.837849,1.87773 -4.063042,3.11505 l -2.216407,2.23832 -4.073358,-0.2141 c -3.666747,-0.19272 -6.299713,0.0237 -10.091264,0.82929 l -1.0165,0.21599 z"
       id="path29" />
</g>
</svg>
